# AST/ASF file generated using VICON BodyLanguage
# -----------------------------------------------
:version 1.10
:name VICON
:units
  mass 1.0
  length 0.45
  angle deg
:documentation
   .ast/.asf automatically generated from VICON data using
   VICON BodyBuilder and BodyLanguage model FoxedUp or BRILLIANT.MOD
:root
   order TX TY TZ RX RY RZ
   axis XYZ
   position 0 0 0  
   orientation 0 0 0 
:bonedata
  begin
     id 1 
     name lhipjoint
     direction 0.693937 -0.600361 0.397515 
     length 2.37164 
     axis 0 0 0  XYZ
  end
  begin
     id 2 
     name lfemur
     direction 0.34202 -0.939693 0  
     length 6.18497  
     axis 0 0 20  XYZ
    dof rx ry rz
    limits (-160.0 20.0)
           (-70.0 70.0)
           (-60.0 70.0)
  end
  begin
     id 3 
     name ltibia
     direction 0.34202 -0.939693 0   
     length 6.91601   
     axis 0 0 20   XYZ
    dof rx
    limits (-10.0 170.0)
  end
  begin
     id 4 
     name lfoot
     direction 0.0978718 -0.2689 0.958182   
     length 1.81453   
     axis -90 7.62852e-016 20   XYZ
    dof rx rz
    limits (-45.0 90.0)
           (-70.0 20.0)
  end
  begin
     id 5 
     name ltoes
     direction 1.53569e-011 -4.21951e-011 1   
     length 0.912052   
     axis -90 7.62852e-016 20   XYZ
    dof rx
    limits (-90.0 20.0)
  end
  begin
     id 6 
     name rhipjoint
     direction -0.643996 -0.637876 0.422354   
     length 2.23216  
     axis 0 0 0  XYZ 
  end
  begin
     id 7 
     name rfemur
     direction -0.34202 -0.939693 0   
     length 6.15404   
     axis 0 0 -20   XYZ
    dof rx ry rz
    limits (-160.0 20.0)
           (-70.0 70.0)
           (-70.0 60.0)
  end
  begin
     id 8 
     name rtibia
     direction -0.34202 -0.939693 0   
     length 6.86744   
     axis 0 0 -20   XYZ
    dof rx
    limits (-10.0 170.0)
 end
 begin
     id 9 
     name rfoot
     direction -0.118701 -0.326127 0.937844   
     length 1.9243  
     axis -90 -7.62852e-016 -20   XYZ
    dof rx rz
    limits (-45.0 90.0)
           (-20.0 70.0)
  end
  begin
     id 10 
     name rtoes
     direction -1.5356e-011 -4.2181e-011 1   
     length 0.958865   
     axis -90 -7.62852e-016 -20   XYZ
    dof rx
    limits (-90.0 20.0)
  end
  begin
     id 11 
     name lowerback
     direction 0.0310826 0.968686 -0.246334   
     length 2.00021   
     axis 0 0 0   XYZ
    dof rx ry rz
    limits (-20.0 45.0)
           (-30.0 30.0)
           (-30.0 30.0)
  end
  begin
     id 12 
     name upperback
     direction -0.0152834 0.999474 -0.0286152   
     length 2.03728   
     axis 0 0 0   XYZ
    dof rx ry rz
    limits (-20.0 45.0)
           (-30.0 30.0)
           (-30.0 30.0)
  end
  begin
     id 13 
     name thorax
     direction -0.0323701 0.996236 0.0804149   
     length 2.16   
     axis 0 0 0   XYZ
    dof rx ry rz
    limits (-20.0 45.0)
           (-30.0 30.0)
           (-30.0 30.0)
  end
  begin
     id 14 
     name lowerneck
     direction 0.0307935 0.982251 0.185027   
     length 1.43558   
     axis 0 0 0   XYZ
    dof rx ry rz
    limits (-20.0 45.0)
           (-30.0 30.0)
           (-30.0 30.0)
  end
  begin
     id 15 
     name upperneck
     direction -0.0927153 0.994775 0.0427454   
     length 1.44603   
     axis 0 0 0   XYZ
    dof rx ry rz
    limits (-20.0 45.0)
           (-30.0 30.0)
           (-30.0 30.0)
  end
  begin
     id 16
     name head
     direction -0.0341265 0.999406 -0.00472033  
     length 1.45931  
     axis 0 0 0   XYZ
    dof rx ry rz
    limits (-20.0 45.0)
           (-30.0 30.0)
           (-30.0 30.0)
  end
  begin
     id 17 
     name lclavicle
     direction 0.820755 0.555306 -0.134151  
     length 2.66075  
     axis 0 0 0   XYZ
    dof ry rz
    limits (-20.0 10.0)
           (0.0 20.0)
  end
  begin
     id 18 
     name lhumerus
     direction 1 -4.48971e-011 5.24853e-027   
     length 5.0546   
     axis -180 -30 -90   XYZ
    dof rx ry rz
    limits (-60.0 90.0)
           (-90.0 90.0)
           (-90.0 90.0)
  end
  begin
     id 19
     name lradius
     direction 1 -4.48971e-011 2.76575e-028   
     length 3.39013   
     axis -180 -30 -90   XYZ
    dof rx
    limits (-10.0 170.0)
  end
  begin
     id 20
     name lwrist
     direction 1 -4.48939e-011 -2.27826e-027   
     length 1.69507   
     axis 2.17013e-015 90 90   XYZ
    dof ry
    limits (-180.0 0.0)
 end
  begin
     id 21 
     name lhand
     direction 1 -4.49009e-011 -4.55652e-027   
     length 0.572425   
     axis 2.90745e-015 90 90   XYZ
    dof rx rz
    limits (-90.0 90.0)
           (-45.0 45.0)
  end
  begin
     id 22 
     name lfingers
     direction 1 -4.48955e-011 -9.11303e-027   
     length 0.461504   
     axis 5.81489e-015 90 90   XYZ
    dof rx
    limits (0.0 90.0)
  end
  begin
     id 23
     name lthumb
     direction 0.707107 -6.34929e-011 0.707107   
     length 0.66263   
     axis -90 45 2.85299e-015   XYZ
    dof rx rz
    limits (-45.0 45.0)
           (-45.0 45.0)
  end
  begin
     id 24 
     name rclavicle
     direction -0.754477 0.632921 -0.173712   
     length 2.73081  
     axis 0 0 0   XYZ 
    dof ry rz
    limits (-10.0 20.0)
           (-20.0 0.0)
  end
  begin
     id 25 
     name rhumerus
     direction -1 -4.48969e-011 5.1496e-027  
     length 5.0701   
     axis -180 30 90   XYZ
    dof rx ry rz
    limits (-90.0 60.0)
           (-90.0 90.0)
           (-90.0 90.0)
  end
  begin
     id 26 
     name rradius
     direction -1 -4.48967e-011 -7.15624e-028   
     length 3.14957   
     axis -180 30 90   XYZ
    dof rx
    limits (-10.0 170.0)
  end
  begin
     id 27 
     name rwrist
     direction -1 -4.48938e-011 -2.27826e-027   
     length 1.57479   
     axis 2.17013e-015 -90 -90   XYZ
    dof ry
    limits (-180.0 0.0)
  end
  begin
     id 28
     name rhand
     direction -1 -4.49008e-011 -4.55652e-027   
     length 0.718191   
     axis 2.90745e-015 -90 -90   XYZ
    dof rx rz
    limits (-90.0 90.0)
           (-45.0 45.0)
  end
  begin
     id 29
     name rfingers
     direction -1 -4.48953e-011 -9.11303e-027   
     length 0.579024   
     axis 5.81489e-015 -90 -90   XYZ
    dof rx
    limits (0.0 90.0)
  end
  begin
     id 30
     name rthumb
     direction -0.707107 -6.34937e-011 0.707107   
     length 0.831366   
     axis -90 -45 -2.85299e-015   XYZ
    dof rx rz
    limits (-45.0 45.0)
           (-45.0 45.0)
  end
:hierarchy
  begin
    root lhipjoint rhipjoint lowerback
    lhipjoint lfemur
    lfemur ltibia
    ltibia lfoot
    lfoot ltoes
    rhipjoint rfemur
    rfemur rtibia
    rtibia rfoot
    rfoot rtoes
    lowerback upperback
    upperback thorax
    thorax lowerneck lclavicle rclavicle
    lowerneck upperneck
    upperneck head
    lclavicle lhumerus
    lhumerus lradius
    lradius lwrist
    lwrist lhand lthumb
    lhand lfingers
    rclavicle rhumerus
    rhumerus rradius
    rradius rwrist
    rwrist rhand rthumb
    rhand rfingers
  end

#!OML:ASF H:\Male1\Project 1\Capture day 1\Session 1\Male1.ASF
:FULLY-SPECIFIED
:DEGREES
69
root 11.5939 15.204 1.61336 183.2 10.2805 -179.439
lowerback 14.3986 0.339365 -1.6037
upperback 5.77289 0.916434 -1.26231
thorax -1.97688 0.754127 -0.567086
lowerneck -3.93455 4.47509 8.50818
upperneck -10.229 5.76336 -10.4127
head -1.80579 3.12678 -4.55131
rclavicle 2.72335e-014 1.43125e-014
rhumerus -39.4334 -2.90758 -82.071
rradius 44.0114
rwrist -23.2266
rhand -22.3824 3.60883
rfingers 7.12502
rthumb 4.03951 -26.3326
lclavicle 2.72335e-014 1.43125e-014
lhumerus -33.7539 -9.99399 84.6284
lradius 37.7339
lwrist 4.0661
lhand -18.8653 10.5445
lfingers 7.12502
lthumb 7.43518 40.3938
rfemur -19.0256 16.142 21.9035
rtibia 36.3975
rfoot -22.3086 -22.5236
rtoes -35.6544
lfemur -19.1844 -8.78614 -21.2081
ltibia 38.3966
lfoot -25.2208 19.5852
ltoes -3.72723
70
root 11.5956 15.1745 1.63759 183.758 10.3565 -179.091
lowerback 15.0804 0.314662 -1.51436
upperback 5.96073 0.935544 -1.09993
thorax -2.14429 0.782649 -0.461714
lowerneck -3.72445 4.45546 8.59608
upperneck -11.3525 5.75818 -10.8489
head -2.15184 3.18874 -4.73687
rclavicle -8.54774e-015 -7.95139e-015
rhumerus -39.2443 -2.45272 -82.0227
rradius 44.2701
rwrist -23.6068
rhand -22.4153 3.69938
rfingers 7.12502
rthumb 4.00777 -26.2427
lclavicle -8.54774e-015 -7.95139e-015
lhumerus -33.714 -9.5896 84.7077
lradius 38.4076
lwrist 4.70404
lhand -19.0805 10.2456
lfingers 7.12502
lthumb 7.2274 40.1021
rfemur -20.3597 15.8826 22.1243
rtibia 37.5082
rfoot -22.8542 -21.8775
rtoes -34.039
lfemur -20.6154 -8.22061 -20.7175
ltibia 39.7447
lfoot -25.4276 19.0711
ltoes -4.19298
71
root 11.5974 15.1425 1.66671 184.433 10.4645 -178.623
lowerback 15.7309 0.268419 -1.38404
upperback 6.15241 0.9362 -0.915698
thorax -2.28906 0.802166 -0.35263
lowerneck -3.97226 4.63658 8.72659
upperneck -11.9173 6.00367 -11.1155
head -2.23999 3.34443 -4.84711
rclavicle -1.61016e-014 -1.15295e-014
rhumerus -38.8676 -2.19427 -81.9777
rradius 44.5062
rwrist -23.8155
rhand -22.6123 3.69854
rfingers 7.12502
rthumb 3.81751 -26.247
lclavicle -1.61016e-014 -1.15295e-014
lhumerus -33.6282 -8.947 84.7387
lradius 39.105
lwrist 5.35444
lhand -19.2405 10.1878
lfingers 7.12502
lthumb 7.07303 40.0496
rfemur -22.0082 15.4668 22.4071
rtibia 38.9558
rfoot -24.225 -20.3057
rtoes -29.3895
lfemur -22.2181 -7.63139 -20.0835
ltibia 41.2366
lfoot -25.709 18.6546
ltoes -4.7234
72
root 11.5986 15.0929 1.698 184.974 10.5391 -178.591
lowerback 16.4832 0.22779 -1.71751
upperback 6.36105 0.882864 -0.851291
thorax -2.46823 0.796437 -0.0987243
lowerneck -3.70052 4.66948 9.07802
upperneck -13.1518 6.05538 -11.7854
head -2.60422 3.44604 -5.15942
rclavicle -1.15295e-014 1.59028e-014
rhumerus -38.4042 -2.21602 -81.8762
rradius 44.6957
rwrist -23.6816
rhand -22.6029 3.57394
rfingers 7.12502
rthumb 3.82657 -26.3715
lclavicle -1.15295e-014 1.59028e-014
lhumerus -33.5983 -8.4489 84.7767
lradius 39.937
lwrist 5.9853
lhand -19.3351 10.5199
lfingers 7.12502
lthumb 6.98168 40.3848
rfemur -23.8075 14.51 22.3298
rtibia 40.7407
rfoot -24.3184 -19.3908
rtoes -29.4532
lfemur -23.8286 -7.2768 -19.9451
ltibia 42.9006
lfoot -26.0485 18.5104
ltoes -5.16486
73
root 11.5925 15.022 1.72689 185.496 10.5265 -178.812
lowerback 17.2392 0.163172 -2.13823
upperback 6.55684 0.77855 -0.886991
thorax -2.6569 0.767154 0.109996
lowerneck -3.5872 4.73961 9.22059
upperneck -14.1721 6.17891 -12.0494
head -2.89694 3.56872 -5.3039
rclavicle 9.74045e-015 1.59028e-015
rhumerus -37.9492 -1.88534 -81.9321
rradius 44.9217
rwrist -23.7982
rhand -22.9615 3.4169
rfingers 7.12502
rthumb 3.4803 -26.5344
lclavicle 9.74045e-015 1.59028e-015
lhumerus -33.6056 -8.48048 84.9657
lradius 40.8023
lwrist 6.87804
lhand -19.8591 10.9489
lfingers 7.12502
lthumb 6.47585 40.8298
rfemur -25.7895 13.1055 22.0737
rtibia 42.8032
rfoot -23.2366 -19.4695
rtoes -34.5222
lfemur -25.6115 -7.13873 -20.1163
ltibia 44.7712
lfoot -26.4693 18.4023
ltoes -5.06048
74
root 11.5847 14.9384 1.75328 186.118 10.4215 -178.974
lowerback 18.0141 0.085967 -2.31169
upperback 6.62 0.666904 -0.995068
thorax -2.99106 0.731721 0.103845
lowerneck -3.48753 4.82906 9.60147
upperneck -14.9293 6.31405 -12.3237
head -3.09987 3.67231 -5.48357
rclavicle 3.27995e-014 -2.3059e-014
rhumerus -37.6543 -1.49334 -82.1098
rradius 45.2324
rwrist -24.0934
rhand -23.4893 3.23965
rfingers 7.12502
rthumb 2.97059 -26.7194
lclavicle 3.27995e-014 -2.3059e-014
lhumerus -33.8213 -9.20242 85.3038
lradius 41.799
lwrist 8.46847
lhand -20.717 11.0905
lfingers 7.12502
lthumb 5.64762 40.9953
rfemur -27.9805 11.5789 21.8856
rtibia 45.0555
rfoot -22.8724 -19.0863
rtoes -36.9131
lfemur -27.6616 -7.17851 -20.216
ltibia 46.8798
lfoot -26.9236 18.3418
ltoes -5.31157
75
root 11.5816 14.8454 1.7777 186.702 10.2383 -179.074
lowerback 18.752 -0.00636356 -2.52158
upperback 6.71535 0.53539 -1.02256
thorax -3.26942 0.686852 0.210286
lowerneck -3.38724 4.94731 9.92888
upperneck -15.6561 6.47896 -12.7247
head -3.28491 3.79973 -5.69476
rclavicle -1.88845e-014 -1.07344e-014
rhumerus -37.2738 -1.03769 -82.0911
rradius 45.6889
rwrist -24.7669
rhand -23.5873 3.02275
rfingers 7.12502
rthumb 2.87593 -26.9376
lclavicle -1.88845e-014 -1.07344e-014
lhumerus -33.9215 -9.61579 85.4477
lradius 42.6674
lwrist 8.80834
lhand -20.366 10.6568
lfingers 7.12502
lthumb 5.98646 40.5522
rfemur -30.1609 10.1545 21.8053
rtibia 47.453
rfoot -23.4604 -18.1996
rtoes -36.5295
lfemur -29.7747 -7.39151 -20.2102
ltibia 49.2238
lfoot -27.6512 18.1067
ltoes -4.76043
76
root 11.5755 14.7362 1.80292 187.177 9.92658 -178.817
lowerback 19.6128 -0.145834 -2.32056
upperback 6.87868 0.435125 -0.902157
thorax -3.53879 0.66536 0.235158
lowerneck -3.24686 5.00118 9.87989
upperneck -16.4988 6.58497 -12.962
head -3.53848 3.92054 -5.80218
rclavicle 1.19271e-015 -8.34896e-015
rhumerus -36.8863 -0.39753 -81.9679
rradius 46.3293
rwrist -25.6753
rhand -23.9701 2.76742
rfingers 7.12502
rthumb 2.50625 -27.1976
lclavicle 1.19271e-015 -8.34896e-015
lhumerus -33.943 -10.3384 85.7715
lradius 43.5178
lwrist 9.13402
lhand -20.2359 10.5098
lfingers 7.12502
lthumb 6.11206 40.4016
rfemur -32.1525 8.81272 22.1769
rtibia 49.9894
rfoot -24.2378 -17.5105
rtoes -36.5745
lfemur -31.8392 -7.64629 -19.8407
ltibia 51.7867
lfoot -28.6103 17.6995
ltoes -3.16789
77
root 11.5671 14.6059 1.82984 187.614 9.40893 -178.486
lowerback 20.5055 -0.361855 -1.98442
upperback 7.04745 0.273163 -0.734604
thorax -3.81549 0.616181 0.249719
lowerneck -2.45486 5.1283 10.8556
upperneck -18.0605 6.71689 -14.4967
head -4.00694 4.11721 -6.55605
rclavicle -2.42517e-014 8.74653e-015
rhumerus -36.3352 -0.124786 -81.7828
rradius 46.8713
rwrist -26.315
rhand -24.2479 2.66824
rfingers 7.12502
rthumb 2.23795 -27.2998
lclavicle -2.42517e-014 8.74653e-015
lhumerus -33.842 -11.2535 86.141
lradius 44.2276
lwrist 9.32379
lhand -20.1296 10.3237
lfingers 7.12502
lthumb 6.21471 40.2126
rfemur -34.1666 7.50925 22.6255
rtibia 52.6896
rfoot -25.3835 -16.8017
rtoes -35.6919
lfemur -33.9862 -8.09424 -19.4292
ltibia 54.5314
lfoot -29.34 17.8414
ltoes -3.2284
78
root 11.5601 14.4638 1.84631 188.026 8.89153 -178.464
lowerback 21.2154 -0.551142 -1.96793
upperback 7.19227 0.0812299 -0.654155
thorax -4.01808 0.54755 0.36547
lowerneck -2.81072 5.20836 10.4665
upperneck -18.4126 6.89144 -14.068
head -4.07197 4.22886 -6.3579
rclavicle -5.1684e-015 -1.23246e-014
rhumerus -35.5627 -0.00845222 -81.59
rradius 47.2434
rwrist -27.3114
rhand -24.2326 2.69461
rfingers 7.12502
rthumb 2.25275 -27.2732
lclavicle -5.1684e-015 -1.23246e-014
lhumerus -33.5724 -12.1159 86.4153
lradius 44.6256
lwrist 9.35492
lhand -19.9441 10.0341
lfingers 7.12502
lthumb 6.39382 39.9176
rfemur -36.2987 6.3362 22.6975
rtibia 55.5745
rfoot -26.6747 -15.8902
rtoes -33.4944
lfemur -36.1554 -8.70794 -19.3933
ltibia 57.3845
lfoot -29.8474 18.5859
ltoes -5.0267
79
root 11.5486 14.3171 1.83906 188.389 8.69789 -178.258
lowerback 21.6238 -0.626387 -1.70558
upperback 7.39015 0.0946951 -0.583865
thorax -4.01452 0.578539 0.285676
lowerneck -2.51013 5.35931 10.8442
upperneck -19.3486 7.10314 -14.7184
head -4.32861 4.41728 -6.69121
rclavicle -1.59028e-014 -7.15625e-015
rhumerus -34.7035 0.131197 -81.3852
rradius 47.5056
rwrist -28.3018
rhand -24.5996 2.59553
rfingers 7.12502
rthumb 1.89828 -27.3758
lclavicle -1.59028e-014 -7.15625e-015
lhumerus -33.0809 -13.0648 86.7139
lradius 44.6403
lwrist 9.14778
lhand -20.032 10.0123
lfingers 7.12502
lthumb 6.30889 39.8983
rfemur -38.3237 5.40801 22.9933
rtibia 58.5854
rfoot -27.4317 -15.3599
rtoes -33.5465
lfemur -38.1303 -9.14744 -19.23
ltibia 60.3126
lfoot -30.5599 19.3052
ltoes -6.04064
80
root 11.5364 14.1626 1.81899 188.824 8.751 -177.888
lowerback 21.7178 -0.575068 -1.37329
upperback 7.57578 0.28051 -0.436168
thorax -3.86737 0.685507 0.209622
lowerneck -2.33863 5.51014 10.9192
upperneck -20.1182 7.3231 -15.1924
head -4.53252 4.61307 -6.90746
rclavicle 5.56597e-015 1.11319e-014
rhumerus -33.7372 0.0561057 -81.0518
rradius 47.6317
rwrist -28.7735
rhand -25.0115 2.19583
rfingers 7.12502
rthumb 1.50042 -27.7786
lclavicle 5.56597e-015 1.11319e-014
lhumerus -32.4775 -14.1815 87.0567
lradius 44.4347
lwrist 8.82679
lhand -20.1378 10.0089
lfingers 7.12502
lthumb 6.20676 39.8979
rfemur -40.4602 4.74448 23.4945
rtibia 61.6949
rfoot -27.9377 -14.9964
rtoes -34.2892
lfemur -40.1264 -9.40462 -18.8661
ltibia 63.2855
lfoot -31.5642 19.5691
ltoes -5.20941
81
root 11.5298 13.9961 1.80609 189.044 8.59459 -177.724
lowerback 22.0351 -0.52042 -1.26493
upperback 7.72458 0.42776 -0.304544
thorax -3.86991 0.776352 0.250166
lowerneck -1.71279 5.60315 11.3419
upperneck -21.2831 7.45446 -16.0963
head -4.90483 4.8024 -7.37501
rclavicle 1.21259e-014 7.55382e-015
rhumerus -32.6699 -0.191487 -80.7755
rradius 47.7006
rwrist -29.1499
rhand -25.5932 1.69832
rfingers 7.12502
rthumb 0.938683 -28.2794
lclavicle 1.21259e-014 7.55382e-015
lhumerus -31.6845 -15.3162 87.2441
lradius 43.883
lwrist 8.40503
lhand -19.7486 9.81755
lfingers 7.12502
lthumb 6.58247 39.6952
rfemur -42.4716 4.09765 23.8071
rtibia 64.8388
rfoot -28.6579 -14.3592
rtoes -32.7198
lfemur -42.0283 -9.71541 -18.6927
ltibia 66.2692
lfoot -32.4826 19.4758
ltoes -4.22303
82
root 11.525 13.8146 1.8044 188.72 7.90294 -177.646
lowerback 23.0546 -0.656922 -1.16953
upperback 7.87457 0.361133 -0.125669
thorax -4.21931 0.781035 0.393434
lowerneck -0.84521 5.71809 11.8853
upperneck -22.5929 7.61224 -17.189
head -5.34227 5.02725 -7.96307
rclavicle 6.55989e-015 4.37326e-015
rhumerus -31.4009 -0.240942 -80.6406
rradius 47.5174
rwrist -29.3588
rhand -26.8359 1.56472
rfingers 7.12502
rthumb -0.261577 -28.4149
lclavicle 6.55989e-015 4.37326e-015
lhumerus -30.7697 -16.0163 87.3524
lradius 42.9958
lwrist 7.73937
lhand -19.4161 9.96727
lfingers 7.12502
lthumb 6.90349 39.8347
rfemur -43.8166 2.99343 24.1855
rtibia 67.8729
rfoot -29.376 -14.2331
rtoes -31.5363
lfemur -43.4599 -10.3012 -18.6733
ltibia 69.1808
lfoot -32.884 19.625
ltoes -5.11524
